<?xml version="1.0" encoding="UTF-8"?>
<svg id="Layer_1" data-name="Layer 1" xmlns="http://www.w3.org/2000/svg" viewBox="0 0 1080 1350">
  <defs>
    <style>
      .cls-1, .cls-2, .cls-3 {
        fill: #fff;
      }

      .cls-4 {
        fill: #e5e5e5;
        stroke-width: .5px;
      }

      .cls-4, .cls-2, .cls-5, .cls-3 {
        stroke: #000;
        stroke-miterlimit: 10;
      }

      .cls-2 {
        stroke-width: 1.03px;
      }

      .cls-5 {
        fill: none;
        stroke-width: .5px;
      }

      .cls-3 {
        stroke-width: 1.01px;
      }
    </style>
  </defs>
  <g>
    <rect class="cls-1" x="42.88" y="91.42" width="119" height="8.23"/>
    <path d="m161.38,91.92v7.23H43.38v-7.23h118m1-1H42.38v9.23h120v-9.23h0Z"/>
  </g>
  <g>
    <rect class="cls-1" x="42.88" y="389.88" width="119" height="8.23"/>
    <path d="m161.38,390.38v7.23H43.38v-7.23h118m1-1H42.38v9.23h120v-9.23h0Z"/>
  </g>
  <g>
    <rect class="cls-1" x="158.27" y="139.12" width="25.15" height="217.46"/>
    <path d="m182.92,139.62v216.46h-24.15v-216.46h24.15m1-1h-26.15v218.46h26.15v-218.46h0Z"/>
  </g>
  <polyline class="cls-3" points="162.38 99.68 171.59 99.68 171.59 138.94"/>
  <polyline class="cls-2" points="170.88 356.62 170.88 389.88 162.38 389.88"/>
  <rect class="cls-4" x="48.76" y="109.88" width="23.53" height="23.53" rx="5.18" ry="5.18"/>
  <rect class="cls-4" x="111.35" y="109.88" width="23.53" height="23.53" rx="5.18" ry="5.18"/>
  <rect class="cls-4" x="228.06" y="109.88" width="23.53" height="23.53" rx="5.18" ry="5.18"/>
  <rect class="cls-4" x="324.06" y="109.88" width="23.53" height="23.53" rx="5.18" ry="5.18"/>
  <rect class="cls-4" x="48.76" y="352.24" width="23.53" height="23.53" rx="5.18" ry="5.18"/>
  <rect class="cls-4" x="85.94" y="352.24" width="23.53" height="23.53" rx="5.18" ry="5.18"/>
  <rect class="cls-4" x="122.18" y="352.24" width="23.53" height="23.53" rx="5.18" ry="5.18"/>
  <polyline class="cls-5" points="171.59 99.68 391.12 99.68 391.12 389.88 170.88 389.88"/>
  <rect class="cls-4" x="287.82" y="364" width="92.71" height="7.06"/>
  <rect class="cls-4" x="287.82" y="373.88" width="92.71" height="7.06"/>
  <rect class="cls-4" x="287.82" y="384.24" width="92.71" height="7.06"/>
</svg>